<svg width="1920" height="1648" viewBox="0 0 1920 1648" fill="none" xmlns="http://www.w3.org/2000/svg">
<g opacity="0.2">
<path d="M-12.4019 521.384L-11.4416 519.96L2.06816 528.933L1.10792 530.357L-12.4019 521.384Z" fill="#111111"/>
<path d="M7.10141 513.735L2.00214 521.218L4.48555 525.258L3.49218 526.748L-5.74609 511.483L-4.78585 510.092L12.7967 513.073L11.7702 514.563L7.10141 513.735ZM5.61137 513.47L-3.79249 511.781L1.20746 519.894L5.61137 513.47Z" fill="#111111"/>
<path d="M14.1207 497.079L15.081 495.722L20.1471 499.265C20.3789 501.318 19.7167 503.47 18.4253 505.324C15.5777 509.364 10.6439 510.324 6.76982 507.576C2.8957 504.861 2.10101 499.861 4.94866 495.821C6.37248 493.801 8.22676 492.51 10.3128 492.245L10.5777 493.735C8.69033 494.066 7.29961 495.093 6.20691 496.649C3.88906 499.927 4.55132 503.967 7.73008 506.218C10.8757 508.437 14.9154 507.675 17.2001 504.397C18.0942 503.139 18.624 501.748 18.624 500.192L14.1207 497.079Z" fill="#111111"/>
<path d="M30.0146 486.351L31.2066 487.212L24.4849 496.517L11.3394 487.013L17.8625 478.007L19.0545 478.868L13.5248 486.484L18.1936 489.861L23.1273 483.073L24.3193 483.934L19.3856 490.722L24.2531 494.265L30.0146 486.351Z" fill="#111111"/>
<path d="M23.6246 472.676L20.214 477.245L19.022 476.351L26.8364 465.821L28.0285 466.715L24.6179 471.285L36.439 480.06L35.4125 481.45L23.6246 472.676Z" fill="#111111"/>
<path d="M49.8823 443.835C51.7697 443.603 53.4584 444.1 54.9484 445.259C56.4385 446.418 57.2994 447.974 57.5312 449.862C57.763 451.749 57.2663 453.438 56.1074 454.928C54.9153 456.418 53.3922 457.279 51.5048 457.51C49.6174 457.742 47.9287 457.246 46.4386 456.087C44.9486 454.895 44.0877 453.371 43.8559 451.484C43.6241 449.597 44.1208 447.908 45.2797 446.418C46.4386 444.928 47.9949 444.034 49.8823 443.835Z" fill="#111111"/>
<path d="M79.3518 419.133C81.471 420.888 81.3717 423.471 78.7558 426.584L73.9546 432.312L61.5044 421.882L66.0077 416.518C68.3255 413.736 70.842 413.14 72.8619 414.829C74.2857 416.021 74.5837 417.577 74.087 419.1C75.8088 417.809 77.6631 417.743 79.3518 419.133ZM63.7229 421.484L68.2262 425.259L71.5374 421.286C73.193 419.299 73.3917 417.511 71.9016 416.253C70.4116 414.994 68.6897 415.524 67.001 417.511L63.7229 421.484ZM78.1267 420.359C76.5042 419.001 74.8155 419.597 72.9612 421.782L69.2857 426.186L73.9546 430.094L77.63 425.69C79.4843 423.537 79.7823 421.749 78.1267 420.359Z" fill="#111111"/>
<path d="M92.4308 410.591L86.0733 409.995C85.8415 410.326 85.5766 410.657 85.2786 411.021L82.4309 414.332L86.3382 417.71L85.2124 419.001L72.9277 408.405L76.9012 403.803C79.5833 400.69 82.7951 400.16 85.4441 402.412C87.3646 404.068 87.8613 406.253 86.868 408.538L93.6559 409.167L92.4308 410.591ZM84.2852 403.703C82.3316 402.015 80.08 402.346 77.9608 404.796L75.1463 408.074L81.3051 413.405L84.1196 410.127C86.2388 407.644 86.2388 405.359 84.2852 403.703Z" fill="#111111"/>
<path d="M102.63 396.816L103.755 397.809L96.1396 406.385L84.0205 395.624L91.4045 387.313L92.5303 388.306L86.2721 395.359L90.5767 399.2L96.1396 392.942L97.2323 393.902L91.6694 400.16L96.1727 404.167L102.63 396.816Z" fill="#111111"/>
<path d="M108.06 380.988L109.186 379.763L113.756 383.935C113.723 385.988 112.762 388.074 111.272 389.73C107.928 393.372 102.928 393.67 99.4182 390.491C95.9083 387.28 95.7758 382.247 99.1202 378.604C100.776 376.783 102.796 375.757 104.915 375.723L105.014 377.247C103.094 377.346 101.604 378.174 100.312 379.564C97.597 382.511 97.7294 386.617 100.577 389.233C103.425 391.816 107.531 391.584 110.213 388.637C111.272 387.478 111.968 386.187 112.133 384.664L108.06 380.988Z" fill="#111111"/>
<path d="M113.292 377.081L106.537 370.69L107.729 369.432L114.451 375.756C117.265 378.405 119.782 378.273 121.934 375.988C124.12 373.67 124.087 371.154 121.272 368.505L114.55 362.18L115.709 360.955L122.464 367.346C125.842 370.558 125.875 374.035 123.06 377.048C120.146 380.094 116.669 380.293 113.292 377.081Z" fill="#111111"/>
<path d="M137.927 359.201L138.987 360.227L131.007 368.472L119.351 357.181L127.099 349.201L128.159 350.227L121.603 356.982L125.742 360.989L131.603 354.962L132.662 355.989L126.801 362.015L131.139 366.22L137.927 359.201Z" fill="#111111"/>
<path d="M133.557 344.764L129.55 348.803L128.491 347.744L137.729 338.439L138.789 339.499L134.782 343.539L145.245 353.936L144.02 355.161L133.557 344.764Z" fill="#111111"/>
<path d="M163.722 319.996C165.609 320.062 167.231 320.757 168.523 322.148C169.814 323.539 170.476 325.161 170.41 327.082C170.344 328.969 169.649 330.592 168.258 331.883C166.867 333.207 165.245 333.837 163.324 333.77C161.437 333.704 159.814 333.009 158.523 331.618C157.199 330.227 156.569 328.605 156.636 326.684C156.702 324.797 157.397 323.175 158.788 321.883C160.179 320.559 161.834 319.93 163.722 319.996Z" fill="#111111"/>
<path d="M180.676 299.963L184.914 304.698L191.172 299.102L192.166 300.195L185.908 305.791L190.51 310.923L189.219 312.082L178.391 299.996L186.669 292.579L187.663 293.672L180.676 299.963Z" fill="#111111"/>
<path d="M208.489 295.062L202.264 293.572C201.966 293.87 201.668 294.168 201.337 294.466L198.059 297.314L201.436 301.188L200.145 302.314L189.483 290.062L194.052 286.089C197.165 283.374 200.41 283.308 202.695 285.923C204.383 287.844 204.516 290.062 203.258 292.215L209.913 293.804L208.489 295.062ZM201.436 287.082C199.748 285.129 197.463 285.129 195.013 287.248L191.768 290.062L197.099 296.188L200.344 293.374C202.794 291.288 203.092 289.003 201.436 287.082Z" fill="#111111"/>
<path d="M217.728 281.52L210.841 287.347L212.165 291.917L210.808 293.076L206.006 275.891L207.298 274.798L223.423 282.381L222.033 283.539L217.728 281.52ZM216.37 280.89L207.761 276.751L210.41 285.924L216.37 280.89Z" fill="#111111"/>
<path d="M225.642 259.599L235.939 272.149L234.847 273.043L218.423 269.467L226.767 279.665L225.443 280.758L215.145 268.208L216.238 267.314L232.661 270.857L224.317 260.659L225.642 259.599Z" fill="#111111"/>
<path d="M233.82 263.44C230.873 259.732 231.536 254.732 235.344 251.685C237.198 250.228 239.35 249.5 241.469 249.831L241.304 251.354C239.416 251.122 237.794 251.685 236.337 252.844C233.258 255.294 232.761 259.367 235.145 262.381C237.529 265.394 241.635 265.824 244.714 263.374C246.171 262.215 247.065 260.758 247.264 258.871L248.787 259.036C248.655 261.155 247.463 263.109 245.608 264.599C241.767 267.645 236.767 267.149 233.82 263.44Z" fill="#111111"/>
<path d="M252.33 249.467L251.767 254.136L254.383 257.513L253.025 258.573L243.125 245.725L244.482 244.666L250.475 252.447L252.032 238.871L253.588 237.679L252.528 247.778L263.886 250.229L262.263 251.487L252.33 249.467Z" fill="#111111"/>
<path d="M274.813 221.884L284.415 234.964L283.091 235.924L275.409 225.461L276.733 238.043L276.071 238.54L264.515 233.573L272.164 243.97L270.839 244.93L261.237 231.851L262.363 231.023L275.177 236.52L273.654 222.679L274.813 221.884Z" fill="#111111"/>
<path d="M284.549 226.355L279.185 218.772L280.575 217.779L285.906 225.295C288.125 228.441 290.641 228.838 293.191 227.017C295.774 225.196 296.237 222.712 294.019 219.567L288.688 212.05L290.045 211.09L295.41 218.673C298.092 222.481 297.462 225.891 294.085 228.275C290.708 230.659 287.231 230.129 284.549 226.355Z" fill="#111111"/>
<path d="M294.416 208.01L295.839 207.05L304.184 219.202L311.667 214.037L312.495 215.262L303.588 221.388L294.416 208.01Z" fill="#111111"/>
<path d="M305.806 200.196L307.23 199.236L315.441 211.487L322.991 206.421L323.819 207.646L314.845 213.673L305.806 200.196Z" fill="#111111"/>
<path d="M334.945 198.607L335.739 199.865L326.137 206.123L317.263 192.547L326.567 186.454L327.362 187.713L319.481 192.845L322.627 197.679L329.647 193.11L330.441 194.335L323.422 198.905L326.7 203.938L334.945 198.607Z" fill="#111111"/>
<path d="M348.488 191.786L342.561 189.368C342.23 189.633 341.899 189.865 341.501 190.13L337.826 192.448L340.574 196.785L339.117 197.713L330.442 184.004L335.574 180.759C339.051 178.541 342.296 178.971 344.15 181.918C345.508 184.07 345.342 186.289 343.753 188.209L350.077 190.792L348.488 191.786ZM342.693 182.812C341.303 180.627 339.051 180.296 336.336 182.017L332.694 184.335L337.031 191.223L340.674 188.905C343.422 187.15 344.051 184.964 342.693 182.812Z" fill="#111111"/>
<path d="M371.765 164.269C373.619 164.733 375.01 165.792 375.97 167.448C376.931 169.071 377.196 170.826 376.699 172.68C376.235 174.534 375.176 175.925 373.52 176.885C371.898 177.845 370.143 178.11 368.288 177.614C366.434 177.15 365.043 176.09 364.083 174.435C363.123 172.812 362.858 171.057 363.355 169.203C363.818 167.349 364.878 165.958 366.533 164.998C368.156 164.038 369.911 163.806 371.765 164.269Z" fill="#111111"/>
<path d="M392.759 148.541L395.838 154.104L403.189 150.031L403.917 151.322L396.567 155.395L399.911 161.422L398.421 162.249L390.573 148.044L400.308 142.647L401.037 143.938L392.759 148.541Z" fill="#111111"/>
<path d="M420.97 149.998L415.241 147.15C414.91 147.382 414.546 147.614 414.115 147.813L410.274 149.866L412.692 154.402L411.168 155.197L403.52 140.892L408.884 138.044C412.526 136.091 415.705 136.753 417.36 139.833C418.552 142.084 418.221 144.303 416.5 146.091L422.625 149.137L420.97 149.998ZM415.837 140.627C414.612 138.342 412.394 137.846 409.546 139.369L405.738 141.389L409.579 148.574L413.387 146.554C416.235 145.031 417.062 142.879 415.837 140.627Z" fill="#111111"/>
<path d="M432.989 138.872L424.943 143.011L425.208 147.746L423.619 148.574L422.758 130.76L424.248 129.998L438.287 141.025L436.665 141.852L432.989 138.872ZM431.797 137.912L424.347 131.952L424.877 141.488L431.797 137.912Z" fill="#111111"/>
<path d="M445.572 119.237L452.791 133.773L451.532 134.402L436.334 127.25L442.195 139.038L440.672 139.8L433.453 125.263L434.711 124.634L449.943 131.786L444.082 119.999L445.572 119.237Z" fill="#111111"/>
<path d="M452.724 124.8C450.671 120.528 452.426 115.793 456.83 113.674C458.949 112.648 461.234 112.449 463.187 113.244L462.658 114.7C460.87 114.071 459.181 114.237 457.492 115.032C453.949 116.72 452.525 120.594 454.214 124.038C455.87 127.515 459.777 128.839 463.287 127.151C464.975 126.356 466.167 125.131 466.763 123.343L468.22 123.873C467.591 125.925 466.035 127.581 463.883 128.608C459.512 130.694 454.744 129.071 452.724 124.8Z" fill="#111111"/>
<path d="M483.585 101.489L483.75 119.237L482.194 119.932L468.949 108.111L470.638 107.35L482.128 117.614L481.995 102.184L483.585 101.489Z" fill="#111111"/>
<path d="M485.836 100.495L487.393 99.8L493.949 114.634L492.393 115.33L485.836 100.495Z" fill="#111111"/>
<path d="M492.36 97.6477L493.949 96.9523L499.777 110.495L508.121 106.886L508.717 108.244L498.817 112.515L492.36 97.6477Z" fill="#111111"/>
<path d="M519.048 99.2371L510.704 102.714L510.572 107.449L508.916 108.144L509.545 90.33L511.101 89.6677L524.181 101.787L522.525 102.482L519.048 99.2371ZM517.923 98.2107L510.969 91.6545L510.704 101.191L517.923 98.2107Z" fill="#111111"/>
<path d="M549.015 79.7671C550.736 80.5287 551.962 81.8201 552.624 83.6081C553.286 85.3962 553.253 87.1511 552.458 88.8729C551.697 90.5948 550.405 91.8199 548.617 92.4822C546.829 93.1444 545.074 93.1113 543.352 92.3166C541.631 91.555 540.405 90.2637 539.743 88.4756C539.081 86.6875 539.114 84.9326 539.909 83.2108C540.67 81.4889 541.962 80.2638 543.75 79.6015C545.538 78.9393 547.293 79.0055 549.015 79.7671Z" fill="#111111"/>
<path d="M571.564 75.0985C570.008 70.6283 572.293 66.1251 576.928 64.5026C581.531 62.9132 586.1 65.0324 587.657 69.5025C589.213 74.0057 586.928 78.4759 582.326 80.0653C577.69 81.7209 573.12 79.5686 571.564 75.0985ZM586.034 70.0985C584.776 66.4562 581.101 64.7012 577.425 65.9595C573.717 67.2509 571.895 70.8932 573.154 74.5355C574.412 78.1779 578.12 79.9328 581.829 78.6414C585.504 77.3832 587.292 73.7409 586.034 70.0985Z" fill="#111111"/>
<path d="M604.874 55.3303L609.907 70.7606L608.351 71.2573L604.312 58.9064L601.629 71.2573L600.868 71.5222L591.431 63.1779L595.438 75.4625L593.881 75.9592L588.848 60.5289L590.206 60.0985L600.636 69.3368L603.55 55.7277L604.874 55.3303Z" fill="#111111"/>
<path d="M625.438 64.4031L625.868 65.827L614.908 69.2044L610.14 53.7079L620.769 50.4298L621.199 51.8536L612.193 54.6351L613.882 60.1648L621.895 57.6814L622.325 59.0721L614.312 61.5555L616.1 67.317L625.438 64.4031Z" fill="#111111"/>
<path d="M638.285 53.708L639.875 53.2444L641.63 59.1715C640.537 60.9264 638.649 62.1847 636.497 62.8138C631.762 64.2045 627.292 61.8536 625.967 57.2841C624.643 52.7146 627.126 48.3438 631.861 46.9531C634.212 46.2577 636.497 46.4233 638.318 47.516L637.59 48.8736C635.901 47.9796 634.179 47.8802 632.358 48.41C628.517 49.5358 626.497 53.112 627.59 56.8205C628.683 60.5291 632.292 62.4496 636.133 61.3238C637.623 60.8933 638.914 60.1648 639.841 58.9397L638.285 53.708Z" fill="#111111"/>
<path d="M655.403 52.8469L646.695 55.2641L645.966 59.966L644.245 60.4296L647.059 42.8139L648.682 42.3503L660.172 55.9925L658.417 56.4892L655.403 52.8469ZM654.41 51.6549L648.317 44.304L646.894 53.7409L654.41 51.6549Z" fill="#111111"/>
<path d="M687.656 37.2511C689.278 38.2445 690.305 39.7014 690.702 41.5226C691.132 43.3769 690.834 45.0987 689.841 46.7212C688.848 48.3437 687.391 49.3702 685.57 49.7675C683.715 50.198 681.993 49.8999 680.371 48.9066C678.749 47.9132 677.722 46.4563 677.325 44.6351C676.894 42.7808 677.192 41.059 678.186 39.4365C679.179 37.814 680.636 36.7875 682.457 36.3902C684.311 35.9597 686.033 36.2246 687.656 37.2511Z" fill="#111111"/>
<path d="M722.622 36.5888L713.781 38.4762L712.788 43.1119L711.033 43.4762L714.874 26.0592L716.529 25.6949L727.191 39.9994L725.436 40.3636L722.622 36.5888ZM721.728 35.3637L716.099 27.6486L714.112 36.9862L721.728 35.3637Z" fill="#111111"/>
<path d="M728.947 38.5425C728.814 37.8472 729.245 37.2181 729.907 37.0856C730.569 36.9532 731.231 37.3505 731.397 38.0459C731.529 38.7412 731.099 39.4035 730.437 39.5359C729.774 39.6684 729.112 39.2379 728.947 38.5425Z" fill="#111111"/>
<path d="M732.225 22.4831L733.913 22.152L736.761 36.622L745.668 34.867L745.966 36.324L735.37 38.41L732.225 22.4831Z" fill="#111111"/>
<path d="M757.985 29.7347L749.078 31.3572L747.952 35.9598L746.198 36.2909L750.568 19.0064L752.224 18.7084L762.422 33.3439L760.634 33.6751L757.985 29.7347ZM757.125 28.4765L751.727 20.5958L749.476 29.8672L757.125 28.4765Z" fill="#111111"/>
<path d="M775.766 14.6356L778.448 30.6288L777.058 30.8606L764.607 19.6024L766.76 32.5824L765.071 32.8804L762.389 16.8872L763.78 16.6555L776.263 27.9136L774.111 14.9336L775.766 14.6356Z" fill="#111111"/>
<path d="M793.68 20.099L795.303 19.8672L796.23 25.9929C794.905 27.5823 792.885 28.5757 790.634 28.9068C785.766 29.6353 781.66 26.7214 780.932 22.0195C780.237 17.3175 783.283 13.311 788.184 12.5825C790.601 12.2183 792.852 12.6818 794.475 14.0063L793.581 15.2315C792.025 14.1057 790.336 13.8076 788.448 14.0725C784.475 14.6686 781.992 17.9135 782.588 21.7546C783.15 25.5625 786.495 27.9465 790.435 27.3836C791.958 27.1518 793.349 26.5889 794.442 25.5293L793.68 20.099Z" fill="#111111"/>
<path d="M812.421 24.1717L812.62 25.6287L801.263 27.1849L799.077 11.1255L810.104 9.6355L810.302 11.0924L800.965 12.3507L801.726 18.0791L810.037 16.9533L810.236 18.4102L801.925 19.536L802.753 25.4962L812.421 24.1717Z" fill="#111111"/>
<path d="M834.143 23.3109L831.627 21.2579C830.434 22.8804 828.68 23.8075 826.494 24.0724C823.348 24.4367 820.898 23.046 820.6 20.5957C820.368 18.6752 821.329 17.152 824.077 15.099C822.322 13.6752 821.759 12.7481 821.594 11.5229C821.362 9.46998 822.786 7.91371 825.269 7.6157C827.554 7.35081 829.176 8.37728 829.408 10.364C829.607 11.9865 828.779 13.2117 826.329 15.0328L831.295 19.0725C831.693 18.1785 831.925 17.0858 832.024 15.8275L833.415 16.0924C833.282 17.5825 832.951 18.8738 832.421 19.9665L835.004 22.0526L834.143 23.3109ZM830.534 20.397L825.103 15.96C822.686 17.748 822.024 18.8407 822.19 20.2645C822.388 22.0195 824.11 22.9797 826.428 22.7148C828.183 22.5162 829.574 21.7546 830.534 20.397ZM823.117 11.3574C823.216 12.2845 823.646 12.9136 825.302 14.2381C827.454 12.6156 828.15 11.7216 828.017 10.5958C827.885 9.40376 826.925 8.7084 825.434 8.87396C823.812 9.03952 822.951 10.066 823.117 11.3574Z" fill="#111111"/>
<path d="M842.19 20.1983L842.72 18.8076C843.978 19.8341 846.13 20.4632 848.249 20.2314C851.263 19.9334 852.455 18.5427 852.289 16.9533C851.859 12.5163 842.19 16.2248 841.594 10.2647C841.362 7.88058 842.985 5.66207 847.124 5.26472C848.945 5.09916 850.898 5.43029 852.256 6.19186L851.826 7.61569C850.369 6.85411 848.68 6.58921 847.256 6.72166C844.309 7.01967 843.117 8.44349 843.283 10.066C843.713 14.503 853.382 10.8276 853.978 16.7215C854.21 19.1056 852.521 21.3241 848.382 21.7215C845.965 21.9532 843.514 21.3241 842.19 20.1983Z" fill="#111111"/>
<path d="M855.964 12.6821C855.567 7.9802 858.878 4.1723 863.779 3.74184C868.646 3.3445 872.554 6.52326 872.951 11.2583C873.348 15.9933 870.004 19.8012 865.17 20.1986C860.269 20.5959 856.362 17.384 855.964 12.6821ZM871.229 11.3907C870.898 7.54974 867.785 4.93388 863.911 5.265C860.004 5.59612 857.322 8.67555 857.653 12.5497C857.984 16.3907 861.13 19.0065 865.037 18.6754C868.911 18.3443 871.56 15.2649 871.229 11.3907Z" fill="#111111"/>
<path d="M889.805 1.95361L890.897 18.1455L889.209 18.2448L888.712 10.7614L878.58 11.4568L879.076 18.9401L877.354 19.0395L876.262 2.84764L877.984 2.7483L878.48 9.96675L888.613 9.2714L888.116 2.05295L889.805 1.95361Z" fill="#111111"/>
<path d="M908.844 0.960327L909.672 17.1522L908.248 17.2184L897.156 4.60266L897.818 17.7482L896.096 17.8475L895.301 1.65568L896.725 1.58946L907.818 14.2052L907.155 1.05966L908.844 0.960327Z" fill="#111111"/>
<path d="M926.294 15.0661L926.36 16.5561L914.904 16.9535L914.308 0.728523L925.433 0.331177L925.5 1.82122L916.096 2.15234L916.294 7.91386L924.672 7.61585L924.738 9.07278L916.361 9.37079L916.592 15.3972L926.294 15.0661Z" fill="#111111"/>
<path d="M958.679 4.53629C960.036 5.86078 960.699 7.48327 960.732 9.40378C960.732 11.2912 960.069 12.9468 958.745 14.2713C957.421 15.5957 955.798 16.2911 953.878 16.3242C951.99 16.3242 950.335 15.662 949.01 14.3375C947.652 13.013 946.99 11.3905 946.957 9.47C946.957 7.58261 947.619 5.927 948.944 4.60251C950.268 3.24492 951.891 2.58267 953.811 2.54956C955.699 2.54956 957.321 3.2118 958.679 4.53629Z" fill="#111111"/>
<path d="M993.777 16.4898L990.201 11.1919C989.771 11.225 989.373 11.225 988.91 11.225L984.539 11.1257L984.407 16.2581L982.685 16.225L983.082 0L989.142 0.132449C993.281 0.231785 995.731 2.38407 995.632 5.86085C995.565 8.41049 994.175 10.1654 991.791 10.8608L995.632 16.523L993.777 16.4898ZM993.943 5.82774C994.009 3.24499 992.32 1.72183 989.075 1.6225L984.771 1.52316L984.572 9.66875L988.877 9.76808C992.122 9.83431 993.877 8.37737 993.943 5.82774Z" fill="#111111"/>
<path d="M998.28 8.47682C998.479 3.74178 1002.22 0.364341 1007.12 0.563014C1011.99 0.761687 1015.47 4.40402 1015.3 9.13906C1015.1 13.8741 1011.33 17.2515 1006.46 17.0529C1001.56 16.8873 998.081 13.2119 998.28 8.47682ZM1013.58 9.10595C1013.74 5.23183 1010.96 2.28485 1007.05 2.11928C1003.15 1.95372 1000.1 4.70203 999.969 8.57615C999.803 12.4503 1002.62 15.3973 1006.53 15.5628C1010.43 15.6953 1013.41 12.9801 1013.58 9.10595Z" fill="#111111"/>
<path d="M1019.6 1.2915L1021.33 1.39084L1020.53 16.1257L1029.6 16.6224L1029.54 18.1125L1018.74 17.5165L1019.6 1.2915Z" fill="#111111"/>
<path d="M1043.88 17.5494L1043.78 19.0395L1032.32 18.2779L1033.41 2.08606L1044.5 2.81453L1044.41 4.30457L1035 3.67544L1034.6 9.43696L1042.98 9.99986L1042.88 11.4568L1034.5 10.8939L1034.11 16.9203L1043.88 17.5494Z" fill="#111111"/>
<path d="M1057.68 20.1321L1053.05 12.5825L1047.29 19.2712L1045.33 19.1056L1052.15 11.2911L1046.99 2.97998L1048.94 3.14554L1053.28 10.1322L1058.68 3.90712L1060.53 4.03957L1054.17 11.3905L1059.67 20.2645L1057.68 20.1321Z" fill="#111111"/>
<path d="M1092.15 12.0196C1093.34 13.5097 1093.84 15.1984 1093.61 17.0858C1093.41 18.9732 1092.55 20.5295 1091.06 21.6884C1089.57 22.8473 1087.88 23.3771 1085.99 23.1453C1084.11 22.9466 1082.55 22.0857 1081.39 20.5957C1080.2 19.1056 1079.7 17.4169 1079.93 15.5295C1080.13 13.6421 1080.99 12.0859 1082.48 10.9269C1083.97 9.73489 1085.66 9.23821 1087.55 9.47C1089.44 9.70178 1090.96 10.5296 1092.15 12.0196Z" fill="#111111"/>
<path d="M1115.5 19.503L1116.79 10.2979L1118.48 10.5296L1117.19 19.6686C1116.66 23.4765 1118.18 25.4632 1121.32 25.9268C1124.47 26.3572 1126.49 24.8672 1127.05 21.0593L1128.34 11.9203L1130 12.1521L1128.71 21.3573C1128.05 25.9599 1125.23 28.0128 1121.13 27.4168C1117.02 26.8539 1114.83 24.1387 1115.5 19.503Z" fill="#111111"/>
<path d="M1135.27 12.98L1136.95 13.2449L1134.67 27.8142L1143.64 29.2049L1143.41 30.6619L1132.75 29.0063L1135.27 12.98Z" fill="#111111"/>
<path d="M1150.93 26.2249L1150 31.7547L1148.34 31.4898L1149.27 25.96L1144.6 14.437L1146.42 14.735L1150.4 24.6356L1157.38 16.5562L1159.07 16.8542L1150.93 26.2249Z" fill="#111111"/>
<path d="M1157.45 31.026L1158.34 29.834C1159.27 31.1584 1161.16 32.3505 1163.28 32.7147C1166.26 33.2445 1167.78 32.218 1168.08 30.6618C1168.87 26.291 1158.54 27.2181 1159.6 21.291C1160.03 18.9401 1162.22 17.2513 1166.29 17.9798C1168.08 18.3109 1169.87 19.1718 1170.99 20.2977L1170.17 21.5228C1168.94 20.397 1167.45 19.6685 1166.03 19.4036C1163.11 18.8738 1161.56 19.9334 1161.29 21.5559C1160.5 25.9267 1170.83 25.0658 1169.77 30.8604C1169.34 33.2114 1167.12 34.867 1163.05 34.1385C1160.63 33.7412 1158.41 32.4829 1157.45 31.026Z" fill="#111111"/>
<path d="M1171.46 33.5757L1172.35 32.4168C1173.28 33.7412 1175.13 34.9664 1177.25 35.3637C1180.23 35.9266 1181.79 34.9333 1182.09 33.377C1182.91 29.0062 1172.62 29.8009 1173.74 23.9069C1174.2 21.556 1176.39 19.9004 1180.46 20.6619C1182.25 20.9931 1184.04 21.8871 1185.13 23.0129L1184.3 24.2381C1183.11 23.0791 1181.59 22.3507 1180.2 22.0858C1177.28 21.5229 1175.73 22.5824 1175.43 24.1718C1174.6 28.5426 1184.9 27.7811 1183.77 33.6088C1183.31 35.9598 1181.06 37.5822 1176.99 36.8207C1174.6 36.324 1172.42 35.0326 1171.46 33.5757Z" fill="#111111"/>
<path d="M1198.08 39.3702L1197.78 40.8272L1186.56 38.5093L1189.83 22.6155L1200.73 24.8671L1200.43 26.324L1191.22 24.4366L1190.07 30.0988L1198.28 31.7875L1197.98 33.2114L1189.77 31.5226L1188.54 37.4166L1198.08 39.3702Z" fill="#111111"/>
<path d="M1224.44 30.132L1220.83 45.9596L1219.44 45.6616L1212.18 30.4631L1209.27 43.3106L1207.58 42.9464L1211.19 27.1188L1212.58 27.4168L1219.87 42.5821L1222.78 29.7346L1224.44 30.132Z" fill="#111111"/>
<path d="M1236.82 45.3305L1228.05 43.1783L1225.13 46.9199L1223.41 46.4895L1234.44 32.483L1236.09 32.8804L1239.47 50.3967L1237.71 49.9662L1236.82 45.3305ZM1236.56 43.8405L1234.83 34.4366L1229.01 41.9862L1236.56 43.8405Z" fill="#111111"/>
<path d="M1252.71 53.8733L1250.43 47.88C1250 47.8138 1249.6 47.7476 1249.17 47.6151L1244.97 46.5224L1243.67 51.4893L1242.02 51.0588L1246.09 35.3636L1251.99 36.8868C1255.99 37.9133 1257.88 40.5623 1257.02 43.9397C1256.39 46.4231 1254.63 47.8138 1252.15 47.9463L1254.6 54.3369L1252.71 53.8733ZM1255.3 43.5092C1255.96 40.9927 1254.67 39.1384 1251.52 38.3106L1247.35 37.2179L1245.3 45.0986L1249.47 46.1913C1252.61 47.0191 1254.67 45.9926 1255.3 43.5092Z" fill="#111111"/>
<path d="M1262.45 39.6683L1268.81 41.4233C1273.81 42.814 1276.29 46.953 1275.03 51.5556C1273.77 56.1582 1269.5 58.4429 1264.5 57.0522L1258.14 55.2973L1262.45 39.6683ZM1264.83 55.5953C1269.01 56.7542 1272.38 54.8337 1273.44 51.092C1274.47 47.3504 1272.52 43.9729 1268.38 42.814L1263.74 41.5557L1260.23 54.337L1264.83 55.5953Z" fill="#111111"/>
<path d="M1281.03 44.8337L1282.68 45.2973L1278.21 60.8931L1276.55 60.4296L1281.03 44.8337Z" fill="#111111"/>
<path d="M1300.86 50.6946L1296.19 66.2242L1294.83 65.8268L1288.61 50.231L1284.83 62.8467L1283.18 62.35L1287.85 46.8204L1289.2 47.2178L1295.43 62.8136L1299.2 50.1979L1300.86 50.6946Z" fill="#111111"/>
<path d="M1331.89 65.6946C1332.75 67.3833 1332.85 69.1382 1332.25 70.9594C1331.65 72.7474 1330.49 74.105 1328.81 74.9328C1327.12 75.7938 1325.36 75.8931 1323.54 75.2971C1321.75 74.7011 1320.43 73.5421 1319.57 71.8534C1318.71 70.1647 1318.61 68.4098 1319.2 66.5886C1319.8 64.8005 1320.96 63.4429 1322.65 62.6151C1324.34 61.7542 1326.09 61.6549 1327.91 62.2509C1329.7 62.8469 1331.02 64.0058 1331.89 65.6946Z" fill="#111111"/>
<path d="M1366.45 78.8401C1365.26 82.0851 1362.18 83.1778 1358.31 81.7539L1354.2 80.2639L1352.45 85.0652L1350.83 84.4691L1356.42 69.2375L1362.12 71.3236C1366.02 72.7805 1367.65 75.5951 1366.45 78.8401ZM1364.83 78.2772C1365.73 75.8269 1364.63 73.8732 1361.59 72.7474L1357.55 71.2574L1354.77 78.8732L1358.81 80.3632C1361.82 81.4559 1363.94 80.6612 1364.83 78.2772Z" fill="#111111"/>
<path d="M1376.49 89.469L1368.04 86.224L1364.67 89.5683L1363.01 88.9392L1375.73 76.4228L1377.31 77.0188L1378.44 94.8331L1376.75 94.1709L1376.49 89.469ZM1376.39 87.9458L1375.86 78.4095L1369.1 85.1644L1376.39 87.9458Z" fill="#111111"/>
<path d="M1388.51 83.0121L1383.21 80.926L1383.77 79.5353L1395.96 84.3697L1395.39 85.7604L1390.1 83.6744L1384.67 97.3828L1383.08 96.7537L1388.51 83.0121Z" fill="#111111"/>
<path d="M1403.61 103.443L1403.04 104.8L1392.45 100.429L1398.61 85.4295L1408.9 89.6679L1408.34 91.0255L1399.63 87.4493L1397.45 92.7804L1405.2 95.9592L1404.63 97.3168L1396.88 94.138L1394.6 99.7008L1403.61 103.443Z" fill="#111111"/>
<path d="M1414.33 101.323L1409.96 103.111L1408.27 107.019L1406.69 106.356L1413.08 91.4227L1414.67 92.085L1410.82 101.091L1423.44 95.8266L1425.26 96.5882L1415.92 100.595L1419.33 111.72L1417.45 110.926L1414.33 101.323Z" fill="#111111"/>
<path d="M1443.31 110.793C1441.88 113.939 1438.74 114.8 1435 113.111L1431.02 111.323L1428.9 115.992L1427.35 115.296L1434 100.495L1439.53 102.979C1443.31 104.701 1444.73 107.614 1443.31 110.793ZM1441.72 110.065C1442.78 107.714 1441.82 105.628 1438.87 104.303L1434.93 102.515L1431.59 109.899L1435.53 111.687C1438.51 113.045 1440.69 112.416 1441.72 110.065Z" fill="#111111"/>
<path d="M1461.39 113.111L1454.5 127.813L1452.98 127.084L1456.16 120.296L1446.95 115.992L1443.77 122.78L1442.21 122.051L1449.1 107.35L1450.66 108.078L1447.58 114.634L1456.78 118.939L1459.86 112.383L1461.39 113.111Z" fill="#111111"/>
<path d="M1466.29 115.462L1467.84 116.19L1460.79 130.793L1459.23 130.064L1466.29 115.462Z" fill="#111111"/>
<path d="M1472.68 118.541L1474.2 119.303L1467.68 132.515L1475.82 136.521L1475.16 137.846L1465.49 133.078L1472.68 118.541Z" fill="#111111"/>
<path d="M1485 124.667L1486.52 125.429L1479.2 139.899L1477.68 139.137L1485 124.667Z" fill="#111111"/>
<path d="M1500.09 138.674C1498.51 141.753 1495.33 142.448 1491.65 140.561L1487.78 138.574L1485.43 143.111L1483.9 142.316L1491.35 127.912L1496.75 130.694C1500.43 132.581 1501.68 135.594 1500.09 138.674ZM1498.57 137.879C1499.76 135.561 1498.94 133.475 1496.06 131.985L1492.21 129.998L1488.47 137.217L1492.31 139.203C1495.19 140.694 1497.38 140.164 1498.57 137.879Z" fill="#111111"/>
<path d="M1514.63 146.455C1513.01 149.501 1509.8 150.164 1506.19 148.21L1502.35 146.157L1499.93 150.66L1498.41 149.866L1506.06 135.561L1511.42 138.442C1515.06 140.362 1516.29 143.376 1514.63 146.455ZM1513.14 145.627C1514.37 143.342 1513.54 141.223 1510.69 139.7L1506.88 137.68L1503.04 144.832L1506.85 146.852C1509.73 148.375 1511.92 147.879 1513.14 145.627Z" fill="#111111"/>
<path d="M1523.57 161.852L1522.84 163.143L1512.81 157.581L1520.66 143.375L1530.39 148.773L1529.66 150.064L1521.42 145.495L1518.64 150.528L1525.99 154.601L1525.29 155.892L1517.94 151.819L1515.03 157.084L1523.57 161.852Z" fill="#111111"/>
<path d="M1556.72 169.534C1557.18 171.388 1556.95 173.11 1555.99 174.766C1555.03 176.388 1553.6 177.448 1551.78 177.912C1549.96 178.375 1548.21 178.143 1546.55 177.183C1544.93 176.223 1543.87 174.799 1543.41 172.978C1542.94 171.124 1543.17 169.402 1544.13 167.746C1545.09 166.124 1546.52 165.064 1548.34 164.6C1550.19 164.137 1551.92 164.369 1553.57 165.329C1555.23 166.289 1556.25 167.68 1556.72 169.534Z" fill="#111111"/>
<path d="M1587.74 189.666C1585.89 192.58 1582.68 193.011 1579.17 190.792L1575.49 188.474L1572.74 192.812L1571.29 191.885L1579.96 178.176L1585.09 181.421C1588.6 183.64 1589.6 186.719 1587.74 189.666ZM1586.29 188.739C1587.68 186.554 1587.01 184.368 1584.27 182.647L1580.62 180.329L1576.29 187.183L1579.93 189.501C1582.68 191.256 1584.93 190.925 1586.29 188.739Z" fill="#111111"/>
<path d="M1593.9 187.051L1595.33 187.978L1586.52 201.587L1585.09 200.66L1593.9 187.051Z" fill="#111111"/>
<path d="M1601.82 206.454L1594.27 201.454L1590.26 204.004L1588.77 203.011L1603.9 193.574L1605.33 194.501L1602.54 212.116L1601.02 211.123L1601.82 206.454ZM1602.05 204.964L1603.6 195.56L1595.56 200.693L1602.05 204.964Z" fill="#111111"/>
<path d="M1618.57 213.242L1619.93 214.169L1616.45 219.269C1614.43 219.534 1612.21 218.871 1610.36 217.613C1606.29 214.832 1605.26 209.898 1607.94 205.991C1610.62 202.05 1615.59 201.222 1619.66 204.004C1621.68 205.395 1623.01 207.249 1623.31 209.335L1621.82 209.633C1621.45 207.746 1620.42 206.388 1618.83 205.295C1615.52 203.044 1611.48 203.739 1609.3 206.918C1607.11 210.097 1607.94 214.136 1611.22 216.388C1612.51 217.249 1613.87 217.779 1615.42 217.745L1618.57 213.242Z" fill="#111111"/>
<path d="M1629.5 229.004L1628.64 230.229L1619.27 223.639L1628.6 210.361L1637.71 216.752L1636.85 217.977L1629.17 212.547L1625.85 217.282L1632.71 222.116L1631.88 223.308L1625.03 218.474L1621.55 223.408L1629.5 229.004Z" fill="#111111"/>
<path d="M1643.07 222.448L1638.44 219.103L1639.3 217.911L1649.93 225.593L1649.07 226.785L1644.43 223.441L1635.79 235.394L1634.4 234.401L1643.07 222.448Z" fill="#111111"/>
<path d="M1672.28 248.341C1672.54 250.228 1672.08 251.917 1670.92 253.44C1669.76 254.963 1668.24 255.824 1666.35 256.089C1664.46 256.354 1662.78 255.891 1661.25 254.732C1659.73 253.573 1658.87 252.05 1658.6 250.162C1658.34 248.275 1658.8 246.586 1659.96 245.063C1661.12 243.54 1662.64 242.679 1664.53 242.414C1666.42 242.149 1668.11 242.613 1669.63 243.771C1671.15 244.93 1672.05 246.454 1672.28 248.341Z" fill="#111111"/>
<path d="M1697.34 277.513C1695.59 279.665 1693.01 279.566 1689.89 277.016L1684.1 272.281L1694.36 259.699L1699.79 264.136C1702.61 266.42 1703.24 268.937 1701.58 270.99C1700.42 272.414 1698.87 272.745 1697.34 272.281C1698.64 273.937 1698.73 275.791 1697.34 277.513ZM1696.09 276.321C1697.41 274.698 1696.81 272.977 1694.6 271.189L1690.16 267.579L1686.32 272.314L1690.75 275.924C1692.94 277.679 1694.73 277.943 1696.09 276.321ZM1694.79 261.884L1691.09 266.453L1695.09 269.732C1697.11 271.387 1698.9 271.553 1700.13 270.03C1701.35 268.506 1700.82 266.785 1698.8 265.162L1694.79 261.884Z" fill="#111111"/>
<path d="M1706.05 290.46L1706.58 284.069C1706.22 283.837 1705.89 283.572 1705.56 283.274L1702.21 280.46L1698.9 284.4L1697.58 283.307L1708.01 270.89L1712.64 274.798C1715.79 277.447 1716.38 280.658 1714.13 283.307C1712.48 285.261 1710.32 285.758 1708.01 284.831L1707.44 291.652L1706.05 290.46ZM1712.84 282.248C1714.5 280.261 1714.16 278.009 1711.68 275.923L1708.37 273.142L1703.14 279.367L1706.45 282.149C1708.9 284.235 1711.18 284.201 1712.84 282.248Z" fill="#111111"/>
<path d="M1719.96 300.493L1719 301.619L1710.32 294.102L1720.95 281.818L1729.36 289.102L1728.4 290.228L1721.28 284.069L1717.51 288.44L1723.87 293.937L1722.91 295.029L1716.55 289.533L1712.61 294.102L1719.96 300.493Z" fill="#111111"/>
<path d="M1735.85 305.724L1737.08 306.817L1732.97 311.453C1730.92 311.453 1728.83 310.526 1727.14 309.036C1723.47 305.757 1723.07 300.724 1726.25 297.181C1729.4 293.638 1734.43 293.407 1738.14 296.718C1739.96 298.34 1741.05 300.36 1741.08 302.479L1739.56 302.579C1739.43 300.658 1738.6 299.168 1737.18 297.91C1734.2 295.228 1730.09 295.426 1727.51 298.307C1724.96 301.188 1725.22 305.294 1728.2 307.943C1729.36 308.969 1730.65 309.665 1732.21 309.83L1735.85 305.724Z" fill="#111111"/>
<path d="M1739.79 310.857L1746.08 304.003L1747.34 305.161L1741.12 311.949C1738.5 314.797 1738.67 317.314 1740.99 319.433C1743.34 321.585 1745.85 321.519 1748.44 318.671L1754.66 311.883L1755.89 313.009L1749.59 319.863C1746.45 323.307 1742.97 323.373 1739.93 320.559C1736.88 317.777 1736.65 314.3 1739.79 310.857Z" fill="#111111"/>
<path d="M1758.01 335.293L1756.98 336.386L1748.63 328.506L1759.79 316.718L1767.87 324.366L1766.85 325.459L1760.03 319.002L1756.05 323.208L1762.14 328.969L1761.15 330.029L1755.06 324.267L1750.92 328.638L1758.01 335.293Z" fill="#111111"/>
<path d="M1772.41 330.757L1768.3 326.784L1769.33 325.724L1778.73 334.863L1777.71 335.923L1773.6 331.949L1763.34 342.545L1762.11 341.353L1772.41 330.757Z" fill="#111111"/>
<path d="M1797.57 360.591C1797.54 362.479 1796.85 364.101 1795.49 365.426C1794.13 366.75 1792.51 367.412 1790.59 367.379C1788.7 367.346 1787.08 366.651 1785.75 365.293C1784.43 363.936 1783.77 362.313 1783.8 360.393C1783.83 358.505 1784.53 356.883 1785.89 355.558C1787.24 354.234 1788.87 353.571 1790.79 353.605C1792.67 353.638 1794.3 354.333 1795.62 355.691C1796.94 357.048 1797.61 358.671 1797.57 360.591Z" fill="#111111"/>
<path d="M1817.81 377.28L1813.1 381.584L1818.77 387.776L1817.67 388.77L1812.01 382.578L1806.95 387.247L1805.79 385.988L1817.74 375.028L1825.26 383.207L1824.16 384.2L1817.81 377.28Z" fill="#111111"/>
<path d="M1823.04 405.028L1824.46 398.803C1824.16 398.538 1823.87 398.24 1823.53 397.875L1820.62 394.63L1816.78 398.074L1815.62 396.783L1827.71 385.955L1831.75 390.491C1834.49 393.571 1834.59 396.816 1832.01 399.134C1830.12 400.822 1827.87 401.021 1825.75 399.763L1824.26 406.418L1823.04 405.028ZM1830.92 397.842C1832.84 396.12 1832.81 393.836 1830.65 391.419L1827.77 388.207L1821.71 393.637L1824.59 396.849C1826.78 399.266 1829.03 399.564 1830.92 397.842Z" fill="#111111"/>
<path d="M1836.71 414.101L1830.79 407.279L1826.25 408.637L1825.09 407.279L1842.21 402.246L1843.3 403.538L1835.92 419.763L1834.73 418.405L1836.71 414.101ZM1837.34 412.71L1841.38 404.068L1832.24 406.849L1837.34 412.71Z" fill="#111111"/>
<path d="M1858.73 421.716L1846.32 432.147L1845.39 431.054L1848.73 414.597L1838.67 423.074L1837.57 421.749L1849.99 411.319L1850.92 412.412L1847.57 428.902L1857.64 420.425L1858.73 421.716Z" fill="#111111"/>
<path d="M1855.02 429.928C1858.7 426.915 1863.7 427.511 1866.78 431.319C1868.27 433.14 1869 435.292 1868.7 437.411L1867.18 437.246C1867.37 435.358 1866.81 433.736 1865.62 432.312C1863.14 429.266 1859.06 428.802 1856.08 431.252C1853.1 433.67 1852.74 437.776 1855.22 440.822C1856.38 442.246 1857.87 443.14 1859.76 443.305L1859.59 444.828C1857.47 444.696 1855.49 443.57 1853.96 441.716C1850.92 437.941 1851.35 432.941 1855.02 429.928Z" fill="#111111"/>
<path d="M1869.23 448.272L1864.53 447.775L1861.18 450.424L1860.12 449.067L1872.84 439.001L1873.9 440.358L1866.22 446.451L1879.83 447.842L1881.05 449.398L1870.92 448.438L1868.63 459.828L1867.37 458.239L1869.23 448.272Z" fill="#111111"/>
<path d="M1897.08 470.391L1884.13 480.192L1883.14 478.868L1893.5 471.053L1880.95 472.543L1880.45 471.881L1885.26 460.259L1874.96 468.04L1873.96 466.716L1886.91 456.914L1887.77 458.04L1882.44 470.921L1896.25 469.232L1897.08 470.391Z" fill="#111111"/>
<path d="M1892.77 480.192L1900.29 474.729L1901.31 476.119L1893.86 481.55C1890.75 483.801 1890.39 486.318 1892.24 488.868C1894.1 491.45 1896.61 491.848 1899.73 489.596L1907.18 484.166L1908.17 485.523L1900.65 490.987C1896.88 493.735 1893.47 493.139 1891.02 489.762C1888.53 486.384 1889 482.941 1892.77 480.192Z" fill="#111111"/>
<path d="M1911.22 489.828L1912.21 491.219L1900.19 499.729L1905.45 507.146L1904.23 508.007L1898 499.199L1911.22 489.828Z" fill="#111111"/>
<path d="M1919.16 501.119L1920.12 502.543L1908 510.921L1913.17 518.404L1911.94 519.232L1905.82 510.358L1919.16 501.119Z" fill="#111111"/>
<path d="M1921.15 530.258L1919.92 531.086L1913.53 521.549L1927.01 512.51L1933.2 521.748L1931.98 522.576L1926.74 514.761L1921.94 517.973L1926.61 524.927L1925.39 525.755L1920.72 518.801L1915.72 522.145L1921.15 530.258Z" fill="#111111"/>
</g>
</svg>
