<svg width="27" height="26" viewBox="0 0 27 26" fill="none" xmlns="http://www.w3.org/2000/svg">
<path fill-rule="evenodd" clip-rule="evenodd" d="M13.2761 0C5.97809 0 0.0214844 5.80325 0.0214844 13.0004C0.0214844 20.1976 5.97809 26.0009 13.2761 26.0009C20.574 26.0009 26.5306 20.1976 26.5306 13.0004C26.5306 5.80325 20.574 0 13.2761 0ZM2.02148 13.0004C2.02148 6.94713 7.04294 2 13.2761 2C19.5092 2 24.5306 6.94713 24.5306 13.0004C24.5306 19.0537 19.5092 24.0009 13.2761 24.0009C7.04294 24.0009 2.02148 19.0537 2.02148 13.0004ZM14 9C14 8.44771 13.5523 8 13 8C12.4477 8 12 8.44771 12 9V14C12 14.5523 12.4477 15 13 15H16C16.5523 15 17 14.5523 17 14C17 13.4477 16.5523 13 16 13H14V9Z" fill="white"/>
</svg>
