<svg width="546" height="592" viewBox="0 0 546 592" fill="none" xmlns="http://www.w3.org/2000/svg">
<g clip-path="url(#clip0)">
<path d="M294.024 583.689L307.143 576.494C309.05 575.443 310.71 575.506 312.007 576.336C312.532 576.674 312.994 577.162 313.391 577.74L312.27 578.616C311.95 578.164 311.598 577.809 311.203 577.547C310.419 577.036 309.432 576.954 308.177 577.579L307.391 577.974L306.149 591.55L304.671 590.592L305.863 578.732L295.407 584.592L294.024 583.689Z" fill="#020203"/>
<path d="M293.626 568.41C294.84 566.669 297.55 566.861 299.955 568.529C301.331 569.486 302.459 570.87 302.941 572.369L301.823 573.038C301.393 571.731 300.408 570.5 299.232 569.681C297.494 568.468 295.708 568.263 294.888 569.441C294.177 570.473 294.743 571.765 296.361 572.885L298.008 574.034L297.342 574.987L295.768 573.892C294.358 572.915 292.968 572.787 292.311 573.745C291.57 574.806 292.293 576.189 293.838 577.255C294.824 577.94 296.065 578.425 297.47 578.607L297.136 579.869C295.512 579.664 294.109 579.098 292.941 578.284C290.744 576.76 289.755 574.572 290.851 572.995C291.552 571.981 292.842 571.738 294.211 572.144C293.06 570.898 292.831 569.545 293.626 568.41Z" fill="#020203"/>
<path d="M286.594 573.689L285.322 572.734L288.442 568.557L282.522 564.128L279.402 568.304L278.139 567.354L285.186 557.944L286.458 558.899L283.354 563.049L289.273 567.479L292.378 563.329L293.65 564.284L286.594 573.689Z" fill="#020203"/>
<path d="M271.206 556.071L275.782 550.398L276.964 551.348L275.814 552.777C277.128 552.291 278.665 552.586 280.177 553.808C282.244 555.478 282.644 557.581 281.358 559.164C280.218 560.576 278.365 561.03 275.735 558.907L272.84 556.561L272.391 557.116C271.129 558.678 271.327 560.246 273.029 561.624C274.211 562.574 275.659 563.061 276.939 562.998L276.752 564.367C275.199 564.401 273.476 563.766 272.037 562.598C269.682 560.703 269.296 558.434 271.206 556.071ZM274.802 554.147L273.589 555.644L276.455 557.962C278.23 559.394 279.362 559.163 280.118 558.216C280.975 557.152 280.66 555.808 279.195 554.624C277.812 553.5 276.258 553.336 274.802 554.147Z" fill="#020203"/>
<path d="M261.262 559.517L260.406 558.767C261.164 557.856 260.977 556.713 260.018 555.88C259.058 555.047 257.902 555.019 257.093 555.877L256.237 555.127C257.502 553.741 259.168 553.831 260.667 555.138C262.156 556.44 262.459 558.068 261.262 559.517ZM265.786 557.373L264.587 556.332L270.725 549.281L258.68 551.177L257.623 550.252L265.345 541.383L266.544 542.424L260.406 549.475L272.439 547.56L273.513 548.495L265.786 557.373Z" fill="#020203"/>
<path d="M249.83 541.101L253.077 544.127L260.134 536.549L261.299 537.628L254.242 545.206L257.488 548.232L256.533 549.263L248.872 542.118L249.83 541.101Z" fill="#020203"/>
<path d="M245.421 529.752L252.402 536.667C254.008 534.791 253.816 532.308 252.001 530.504C250.989 529.501 249.719 528.965 248.355 529.074L248.442 527.716C250.065 527.56 251.697 528.235 253.01 529.54C255.613 532.112 255.632 535.659 253.179 538.138C250.725 540.618 247.256 540.673 244.904 538.35C242.552 536.027 242.575 532.609 245.057 530.1C245.154 529.993 245.292 529.875 245.421 529.752ZM251.567 537.51L245.648 531.651C244.17 533.426 244.232 535.753 245.865 537.37C247.485 538.968 249.809 539.007 251.567 537.51Z" fill="#020203"/>
<path d="M240.844 525.691C238.261 528.072 234.727 527.858 232.364 525.272C231.015 523.807 230.464 522.047 230.966 520.313L232.357 520.639C232.029 522.032 232.464 523.33 233.381 524.336C235.124 526.226 237.733 526.372 239.762 524.508C241.8 522.626 241.864 520.022 240.135 518.129C239.218 517.123 237.972 516.566 236.562 516.775L236.354 515.365C238.105 515.027 239.835 515.711 241.171 517.18C243.533 519.765 243.43 523.323 240.844 525.691Z" fill="#020203"/>
<path d="M223.7 513.187L226.615 516.545L234.431 509.765L235.467 510.968L227.651 517.748L230.566 521.106L229.501 522.026L222.643 514.112L223.7 513.187Z" fill="#020203"/>
<path d="M227.337 510.588C224.634 512.796 221.107 512.388 218.929 509.723C216.751 507.059 217.083 503.528 219.794 501.326C222.497 499.118 226.03 499.495 228.199 502.155C230.372 504.828 230.04 508.381 227.337 510.588ZM220.814 502.577C218.685 504.314 218.437 506.915 220.014 508.85C221.592 510.784 224.197 511.078 226.326 509.342C228.455 507.606 228.69 504.985 227.113 503.051C225.535 501.117 222.948 500.832 220.814 502.577Z" fill="#020203"/>
<path d="M213.657 503.005L212.706 501.735L220.169 496.111L207.998 495.469L207.151 494.341L216.545 487.262L217.495 488.532L210.033 494.156L222.192 494.779L223.051 495.926L213.657 503.005Z" fill="#020203"/>
<path d="M197.503 480.479L207.192 473.814L208.012 475.009L200.346 480.282L209.519 479.74L209.921 480.332L206.108 488.726L213.793 483.44L214.613 484.635L204.924 491.299L204.018 489.973L208.177 481.059L198.332 481.678L197.503 480.479Z" fill="#020203"/>
<path d="M201.069 475.187C198.117 477.042 194.661 476.209 192.837 473.295C191.012 470.381 191.767 466.921 194.719 465.066C197.671 463.212 201.129 464.022 202.958 466.927C204.788 469.833 204.026 473.324 201.069 475.187ZM195.575 466.421C193.246 467.879 192.682 470.426 194.008 472.553C195.335 474.679 197.885 475.291 200.21 473.819C202.539 472.36 203.091 469.795 201.764 467.668C200.441 465.555 197.908 464.954 195.575 466.421Z" fill="#020203"/>
<path d="M194.107 464.015C191.07 465.774 187.667 464.81 185.913 461.773C184.918 460.059 184.755 458.209 185.613 456.622L186.905 457.24C186.285 458.534 186.428 459.896 187.11 461.069C188.395 463.288 190.926 463.993 193.304 462.61C195.701 461.214 196.328 458.68 195.042 456.461C194.361 455.288 193.266 454.47 191.839 454.367L191.943 452.939C193.725 452.99 195.262 454.029 196.261 455.757C198.01 458.802 197.148 462.247 194.107 464.015Z" fill="#020203"/>
<path d="M180.063 448.091L182.183 452.002L191.272 447.062L192.026 448.451L182.938 453.391L185.058 457.302L183.823 457.973L178.828 448.762L180.063 448.091Z" fill="#020203"/>
<path d="M180.936 435.396C183.168 434.265 185.193 435.144 186.564 437.959L188.677 442.203L178.192 447.511L177.475 446.097L181.148 444.241L179.624 441.128C178.311 438.474 178.788 436.482 180.936 435.396ZM181.665 436.828C180.108 437.615 179.89 438.978 180.857 440.944L182.196 443.694L186.86 441.328L185.521 438.578C184.566 436.631 183.242 436.029 181.665 436.828Z" fill="#020203"/>
<path d="M174.673 420.115C176.527 419.278 178.191 420.158 179.437 422.947L181.616 427.822L170.895 432.634L168.784 427.903C167.7 425.475 168.011 423.549 169.786 422.748C170.99 422.211 172.115 422.535 173.023 423.477C172.699 421.825 173.265 420.744 174.673 420.115ZM175.036 429.082L173.6 425.857C172.857 424.207 171.818 423.572 170.614 424.11C169.409 424.647 169.225 425.832 169.967 427.482L171.404 430.706L175.036 429.082ZM175.225 421.574C173.942 422.147 173.709 423.234 174.523 425.041L176.111 428.586L179.841 426.914L178.321 423.512C177.512 421.696 176.508 421 175.225 421.574Z" fill="#020203"/>
<path d="M166.587 411.132L173.329 408.384L173.897 409.794L172.202 410.478C173.591 410.687 174.787 411.691 175.526 413.49C176.53 415.954 175.857 417.985 173.972 418.757C172.298 419.442 170.454 418.935 169.179 415.815L167.77 412.362L167.105 412.629C165.238 413.388 164.657 414.856 165.481 416.89C166.049 418.299 167.085 419.421 168.231 419.99L167.407 421.095C166.031 420.382 164.84 418.985 164.137 417.265C163.01 414.451 163.772 412.286 166.587 411.132ZM170.658 411.18L168.879 411.909L170.263 415.324C171.122 417.437 172.223 417.782 173.346 417.326C174.608 416.81 174.982 415.479 174.28 413.736C173.601 412.077 172.317 411.184 170.658 411.18Z" fill="#020203"/>
<path d="M155.711 394.328L166.781 390.38L172.21 405.656L161.14 409.604L160.609 408.111L170.375 404.631L168.446 399.203L158.674 402.691L158.143 401.198L167.914 397.71L166.008 392.342L156.237 395.83L155.711 394.328Z" fill="#020203"/>
<path d="M154.583 390.711L154.125 389.19L163.056 386.473L151.848 381.689L151.443 380.339L162.684 376.92L163.142 378.44L154.211 381.157L165.406 385.923L165.823 387.292L154.583 390.711Z" fill="#020203"/>
<path d="M159.945 366.639L156.147 371.506L161.854 373.871L162.309 375.599L155.289 372.651L150.894 378.393L150.44 376.666L153.986 372.073L148.631 369.842L148.188 368.155L154.846 370.964L159.474 364.879L159.945 366.639Z" fill="#020203"/>
<path d="M144.745 352.84L156.232 350.342L156.566 351.896L151.783 352.938C152.632 354.102 153.222 355.373 153.5 356.662C154.086 359.349 153.255 361.311 150.651 361.878L146.878 362.701L146.544 361.147L150.235 360.347C151.983 359.973 152.591 358.579 152.18 356.656C151.941 355.541 151.367 354.383 150.545 353.211L145.087 354.398L144.745 352.84Z" fill="#020203"/>
<path d="M146.867 339.771L154.031 338.465L154.305 339.961L152.501 340.291C153.81 340.779 154.785 342.006 155.129 343.925C155.601 346.547 154.525 348.391 152.524 348.759C150.746 349.082 149.041 348.214 148.44 344.89L147.775 341.215L147.073 341.344C145.1 341.705 144.222 343.024 144.605 345.176C144.88 346.672 145.657 347.981 146.664 348.772L145.626 349.684C144.428 348.702 143.547 347.089 143.221 345.261C142.69 342.279 143.881 340.315 146.867 339.771ZM150.833 340.665L148.942 341.004L149.601 344.629C150.001 346.873 151.013 347.433 152.202 347.224C153.542 346.975 154.18 345.75 153.85 343.908C153.542 342.148 152.471 341.006 150.833 340.665Z" fill="#020203"/>
<path d="M147.914 337.515C144.448 338.026 141.645 335.861 141.139 332.394C140.848 330.424 141.384 328.651 142.77 327.498L143.738 328.557C142.678 329.527 142.31 330.849 142.507 332.196C142.876 334.735 144.966 336.325 147.681 335.927C150.423 335.522 151.94 333.397 151.571 330.858C151.373 329.511 150.664 328.346 149.372 327.728L150 326.439C151.639 327.141 152.677 328.682 152.967 330.652C153.465 334.115 151.384 336.995 147.914 337.515Z" fill="#020203"/>
<path d="M146.272 326.298C142.81 326.683 140.066 324.436 139.683 321.017C139.3 317.598 141.488 314.814 144.946 314.415C148.409 314.03 151.176 316.255 151.56 319.675C151.943 323.094 149.74 325.904 146.272 326.298ZM145.129 316.009C142.397 316.316 140.786 318.362 141.068 320.851C141.35 323.34 143.376 324.999 146.108 324.692C148.84 324.385 150.453 322.316 150.171 319.827C149.884 317.347 147.861 315.702 145.129 316.009Z" fill="#020203"/>
<path d="M146.694 302.015C148.723 301.86 149.991 303.244 150.216 306.293L150.615 311.617L138.905 312.508L138.52 307.343C138.32 304.692 139.27 302.985 141.204 302.834C142.517 302.732 143.467 303.42 144.008 304.616C144.257 302.957 145.155 302.126 146.694 302.015ZM143.994 310.573L143.73 307.048C143.6 305.241 142.824 304.293 141.511 304.395C140.197 304.497 139.624 305.55 139.759 307.349L140.023 310.874L143.994 310.573ZM146.721 303.577C145.313 303.683 144.738 304.618 144.887 306.612L145.18 310.491L149.259 310.183L148.98 306.463C148.83 304.469 148.129 303.471 146.721 303.577Z" fill="#020203"/>
<path d="M148.591 298.005C148.976 297.982 149.269 298.058 149.901 298.249L153.032 299.022L153.089 300.09L149.816 299.503C149.707 299.974 149.302 300.334 148.723 300.372C148.031 300.403 147.497 299.92 147.452 299.254C147.413 298.557 147.931 298.042 148.591 298.005Z" fill="#020203"/>
<path d="M137.662 291.229L137.636 289.644L142.838 289.566L142.741 282.171L137.539 282.25L137.514 280.665L149.261 280.493L149.286 282.077L144.107 282.158L144.204 289.552L149.383 289.472L149.409 291.057L137.662 291.229Z" fill="#020203"/>
<path d="M144.175 266.834L143.93 276.671C146.394 276.547 148.069 274.711 148.135 272.144C148.172 270.712 147.691 269.434 146.678 268.512L147.727 267.64C148.951 268.719 149.581 270.362 149.532 272.218C149.436 275.884 146.877 278.326 143.393 278.245C139.909 278.164 137.496 275.666 137.57 272.36C137.653 269.058 140.144 266.716 143.672 266.8C143.821 266.804 143.995 266.823 144.175 266.834ZM142.747 276.628L142.951 268.29C140.648 268.438 138.993 270.076 138.939 272.382C138.886 274.666 140.455 276.374 142.747 276.628Z" fill="#020203"/>
<path d="M147.468 249.906C149.497 250.054 150.547 251.614 150.317 254.668L149.921 259.998L138.209 259.145L138.595 253.971C138.792 251.317 139.977 249.768 141.915 249.91C143.23 250.006 144.068 250.827 144.42 252.089C144.918 250.481 145.938 249.802 147.468 249.906ZM143.535 257.986L143.794 254.46C143.93 252.655 143.309 251.599 141.994 251.503C140.68 251.406 139.963 252.365 139.827 254.171L139.568 257.696L143.535 257.986ZM147.266 251.464C145.861 251.362 145.152 252.209 145.004 254.194L144.715 258.074L148.794 258.371L149.074 254.648C149.212 252.658 148.67 251.566 147.266 251.464Z" fill="#020203"/>
<path d="M148.14 237.862C150.624 238.145 151.822 240.011 151.424 243.096L150.869 247.718L139.199 246.388L139.38 244.807L143.467 245.271L143.899 241.949C144.248 239.011 145.74 237.593 148.14 237.862ZM147.948 239.461C146.216 239.263 145.293 240.277 145.022 242.458L144.631 245.407L149.828 246L150.218 243.051C150.484 240.902 149.703 239.66 147.948 239.461ZM140.506 235.013L140.687 233.431L152.357 234.761L152.176 236.342L140.506 235.013Z" fill="#020203"/>
<path d="M153.97 224.284L148.54 227.231L152.818 231.69L152.539 233.459L147.289 227.951L140.964 231.463L141.243 229.693L146.33 226.897L142.324 222.712L142.586 220.991L147.56 226.235L154.24 222.509L153.97 224.284Z" fill="#020203"/>
<path d="M148.434 221.622C145.007 220.981 143.046 218.023 143.674 214.641C144.303 211.259 147.216 209.231 150.634 209.867C154.061 210.508 156.055 213.451 155.418 216.827C154.784 220.218 151.853 222.259 148.434 221.622ZM150.335 211.451C147.63 210.947 145.494 212.435 145.033 214.902C144.573 217.369 146.023 219.544 148.728 220.047C151.433 220.551 153.571 219.041 154.041 216.579C154.501 214.112 153.041 211.954 150.335 211.451Z" fill="#020203"/>
<path d="M158.028 197.424L162.15 198.35L161.818 199.809L159.052 199.189L156.735 209.458L159.501 210.078L159.169 211.538L155.047 210.612L155.195 209.953C155.471 208.228 152.461 207.247 149.406 206.402L145.606 205.382L147.515 196.925L157.627 199.204L158.028 197.424ZM155.652 207.914L157.271 200.766L148.538 198.795L147.293 204.31L149.81 205.019C152.391 205.718 155.04 206.561 155.652 207.914Z" fill="#020203"/>
<path d="M150.799 184.237L162.161 187.227L161.792 188.63L158.035 187.635L157.093 191.197L156.981 191.633L160.043 195.261L159.604 196.926L156.373 193.049C155.436 194.671 153.984 195.356 152.152 194.868C149.561 194.187 148.769 191.938 149.546 189.003L150.799 184.237ZM155.974 190.783L156.881 187.341L151.779 186.001L150.901 189.332C150.34 191.45 150.777 192.865 152.591 193.343C154.317 193.793 155.412 192.902 155.974 190.783Z" fill="#020203"/>
<path d="M153.159 176.028L153.638 174.514L162.535 177.347L156.025 167.041L156.453 165.695L167.65 169.252L167.17 170.767L158.274 167.933L164.794 178.221L164.355 179.585L153.159 176.028Z" fill="#020203"/>
<path d="M173.017 150.522L176.965 152.011L176.434 153.414L173.781 152.417L170.065 162.273L172.718 163.27L172.187 164.673L168.238 163.184L168.475 162.553C168.986 160.883 166.141 159.496 163.233 158.236L159.612 156.704L162.674 148.586L172.368 152.229L173.017 150.522ZM169.23 160.582L171.809 153.721L163.432 150.57L161.435 155.86L163.828 156.905C166.297 157.958 168.807 159.163 169.23 160.582Z" fill="#020203"/>
<path d="M169.157 148.096C165.94 146.75 164.649 143.435 165.982 140.261C167.314 137.088 170.579 135.717 173.788 137.058C177.006 138.404 178.329 141.703 176.997 144.877C175.668 148.063 172.37 149.451 169.157 148.096ZM173.165 138.559C170.634 137.493 168.229 138.5 167.255 140.811C166.281 143.121 167.242 145.56 169.779 146.617C172.31 147.683 174.725 146.659 175.699 144.348C176.673 142.038 175.702 139.617 173.165 138.559Z" fill="#020203"/>
<path d="M175.017 120.509L185.648 125.507L185.027 126.823L176.622 122.878L181.707 130.523L181.402 131.173L172.244 132.131L180.666 136.087L180.046 137.403L169.414 132.405L170.102 130.952L179.884 130.041L174.381 121.851L175.017 120.509Z" fill="#020203"/>
<path d="M184.748 111.438L191.206 114.795L190.506 116.147L188.881 115.302C189.62 116.496 189.633 118.062 188.739 119.79C187.514 122.154 185.527 122.96 183.723 122.023C182.115 121.188 181.305 119.452 182.87 116.46L184.594 113.152L183.961 112.821C182.173 111.894 180.682 112.406 179.668 114.344C178.968 115.696 178.782 117.205 179.094 118.455L177.718 118.545C177.373 117.031 177.668 115.213 178.525 113.567C179.91 110.867 182.047 110.042 184.748 111.438ZM187.338 114.574L185.635 113.683L183.931 116.956C182.88 118.978 183.334 120.042 184.404 120.602C185.61 121.228 186.871 120.654 187.743 118.982C188.559 117.407 188.415 115.847 187.338 114.574Z" fill="#020203"/>
<path d="M196.182 99.1762C198.02 100.237 198.034 102.967 196.569 105.505C195.728 106.962 194.445 108.198 192.984 108.797L192.224 107.742C193.487 107.203 194.634 106.121 195.354 104.874C196.417 103.033 196.481 101.233 195.244 100.519C194.164 99.8953 192.915 100.57 191.933 102.271L190.926 104.015L189.924 103.437L190.886 101.771C191.747 100.28 191.76 98.8909 190.749 98.3076C189.626 97.6589 188.317 98.4969 187.376 100.128C186.771 101.175 186.392 102.456 186.325 103.859L185.041 103.629C185.113 101.996 185.565 100.548 186.28 99.3095C187.629 96.9944 189.719 95.8285 191.382 96.789C192.445 97.4024 192.796 98.6638 192.495 100.071C193.648 98.8182 194.98 98.4823 196.182 99.1762Z" fill="#020203"/>
<path d="M198.813 87.5188L204.984 91.3724L204.18 92.6644L202.625 91.6969C203.267 92.9394 203.162 94.5075 202.13 96.1557C200.722 98.4131 198.686 99.0635 196.962 97.9867C195.424 97.0292 194.753 95.2346 196.545 92.373L198.526 89.2024L197.918 88.8279C196.211 87.7612 194.682 88.1574 193.519 90.01C192.715 91.3019 192.408 92.7993 192.62 94.0614L191.238 94.0424C191.011 92.5042 191.439 90.7163 192.427 89.1466C194.03 86.5715 196.233 85.913 198.813 87.5188ZM201.148 90.8558L199.52 89.8343L197.564 92.9613C196.356 94.8923 196.717 95.9964 197.742 96.6347C198.893 97.3572 200.193 96.8751 201.196 95.2792C202.148 93.7706 202.126 92.1995 201.148 90.8558Z" fill="#020203"/>
<path d="M198.146 73.4685L211.061 82.2744L210.156 83.601L198.422 75.605L196.349 78.6531L195.167 77.8431L198.146 73.4685Z" fill="#020203"/>
<path d="M214.938 68.8822C217.093 70.4402 217.694 73.1599 215.456 76.2522C214.133 78.0816 212.252 79.3682 210.546 79.6277L209.971 78.2494C211.412 78.0463 213.073 77.0398 214.25 75.4046C215.809 73.2464 215.582 71.3473 214.04 70.2362C212.408 69.0611 210.664 69.3454 208.337 72.5723L206.392 75.276L200.508 70.041L205.517 63.0942L206.675 63.9254L202.487 69.7301L206.21 73.0774L207.387 71.4422C210.146 67.6276 212.693 67.2602 214.938 68.8822Z" fill="#020203"/>
<path d="M221.717 48.7337L230.861 56.1065L229.949 57.2432L222.713 51.4136L225.844 60.0486L225.396 60.6038L216.28 59.3764L223.535 65.216L222.623 66.3527L213.478 58.9798L214.492 57.7274L224.204 59.1482L220.795 49.8878L221.717 48.7337Z" fill="#020203"/>
<path d="M224.152 45.8833L225.203 44.6872L232.207 50.8592L230.382 38.7926L231.316 37.7385L240.13 45.5022L239.08 46.6983L232.076 40.5262L233.915 52.5667L232.971 53.6383L224.152 45.8833Z" fill="#020203"/>
<path d="M233.836 34.9832L234.929 33.8347L238.695 37.4282L243.798 32.0703L240.031 28.4769L241.124 27.3284L249.624 35.4344L248.532 36.5828L244.777 33.0082L239.675 38.366L243.429 41.9407L242.337 43.0891L233.836 34.9832Z" fill="#020203"/>
<path d="M250.891 17.7325L255.868 31.2585C256.772 33.5947 256.394 34.9932 255.191 36.1712C254.41 36.9412 253.403 37.4181 252.398 37.4081L252.102 36.0507C252.922 36.0588 253.651 35.7819 254.259 35.1911C255.006 34.4596 255.176 33.6036 254.628 32.078L254.203 30.9025L242.262 26.1826L243.441 25.0257L253.575 29.0743L249.779 18.8346L250.891 17.7325Z" fill="#020203"/>
<path d="M259.153 12.0708L255.879 15.0878L262.877 22.6985L261.712 23.7706L254.714 16.1599L251.439 19.177L250.492 18.1418L258.207 11.0356L259.153 12.0708Z" fill="#020203"/>
</g>
<defs>
<clipPath id="clip0">
<rect width="478.759" height="352.967" fill="white" transform="translate(0.470947 415.067) rotate(-60)"/>
</clipPath>
</defs>
</svg>
