<svg width="28" height="31" viewBox="0 0 28 31" fill="none" xmlns="http://www.w3.org/2000/svg">
<path d="M22.8078 3.70521C22.6884 3.7055 22.5711 3.67442 22.4682 3.6152C19.6356 2.13015 17.1866 1.50013 14.2506 1.50013C11.3293 1.50013 8.55545 2.20515 6.03241 3.6152C5.67563 3.81271 5.23587 3.6752 5.02907 3.31269C4.93677 3.13772 4.91594 2.93491 4.97083 2.74545C5.02572 2.55598 5.1522 2.39409 5.32458 2.29266C8.04572 0.781337 11.1223 -0.00886214 14.2506 7.49746e-05C17.3928 7.49746e-05 20.1373 0.7051 23.1473 2.28016C23.323 2.37471 23.4537 2.53291 23.5116 2.7208C23.5695 2.90869 23.5498 3.11131 23.4569 3.28519C23.401 3.40864 23.3102 3.51382 23.1951 3.58826C23.0801 3.6627 22.9457 3.70329 22.8078 3.70521ZM1.6948 11.5805C1.5415 11.5794 1.39224 11.5323 1.26717 11.4455C1.10445 11.3271 0.995015 11.1514 0.961917 10.9556C0.92882 10.7597 0.974642 10.5589 1.08973 10.3954C2.55071 8.29537 4.40868 6.64531 6.6228 5.49027C11.2553 3.06268 17.1866 3.04518 21.8338 5.47527C24.0473 6.63031 25.9059 8.26537 27.3669 10.3504C27.4815 10.514 27.527 10.7147 27.494 10.9104C27.4609 11.1062 27.3518 11.2818 27.1894 11.4005C27.1107 11.4581 27.0207 11.4993 26.925 11.5215C26.8294 11.5438 26.73 11.5465 26.6332 11.5296C26.5364 11.5128 26.4442 11.4766 26.3622 11.4234C26.2803 11.3703 26.2103 11.3012 26.1567 11.2205C24.8292 9.33041 23.1473 7.84535 21.1553 6.81032C16.9211 4.60524 11.5061 4.60524 7.28659 6.82532C5.2799 7.87535 3.59809 9.37541 2.27051 11.263C2.21327 11.3623 2.12936 11.4444 2.02788 11.5004C1.9264 11.5563 1.81121 11.584 1.6948 11.5805ZM10.9157 29.6886C10.8182 29.6895 10.7217 29.6699 10.6326 29.6311C10.5435 29.5923 10.464 29.5352 10.3994 29.4636C9.11584 28.1561 8.42014 27.3135 7.43403 25.501C6.41282 23.6559 5.88497 21.4058 5.88497 18.9907C5.88497 14.5356 9.6322 10.9055 14.236 10.9055C18.8397 10.9055 22.5895 14.5356 22.5895 18.9907C22.5924 19.0874 22.5755 19.1836 22.5397 19.2737C22.504 19.3638 22.4501 19.446 22.3813 19.5153C22.3126 19.5847 22.2303 19.6398 22.1393 19.6775C22.0484 19.7151 21.9507 19.7345 21.852 19.7345C21.7533 19.7345 21.6556 19.7151 21.5646 19.6775C21.4737 19.6398 21.3914 19.5847 21.3227 19.5153C21.2539 19.446 21.2 19.3638 21.1643 19.2737C21.1285 19.1836 21.1116 19.0874 21.1145 18.9907C21.1145 15.3606 18.0304 12.4055 14.2392 12.4055C10.4479 12.4055 7.36063 15.3606 7.36063 18.9907C7.36063 21.1508 7.8323 23.1459 8.73225 24.766C9.67687 26.491 10.3279 27.226 11.4621 28.3961C11.5966 28.5417 11.6711 28.731 11.6711 28.9273C11.6711 29.1237 11.5966 29.313 11.4621 29.4586C11.3173 29.6017 11.1214 29.6842 10.9157 29.6886ZM21.4949 26.9135C19.739 26.9135 18.19 26.4635 16.9211 25.5785C15.8401 24.8365 14.9569 23.851 14.346 22.705C13.7351 21.559 13.4143 20.286 13.4107 18.9932C13.4066 18.8958 13.4226 18.7986 13.4578 18.7074C13.493 18.6162 13.5467 18.5329 13.6156 18.4626C13.6845 18.3922 13.7673 18.3362 13.8588 18.298C13.9504 18.2598 14.049 18.24 14.1485 18.24C14.2481 18.24 14.3466 18.2598 14.4382 18.298C14.5298 18.3362 14.6125 18.3922 14.6814 18.4626C14.7504 18.5329 14.804 18.6162 14.8393 18.7074C14.8745 18.7986 14.8905 18.8958 14.8863 18.9932C14.8888 20.0433 15.1503 21.0772 15.6486 22.007C16.1469 22.9368 16.8673 23.7349 17.7483 24.3334C18.7957 25.0535 20.0205 25.396 21.4962 25.396C22.0101 25.387 22.5224 25.3369 23.028 25.246C23.4263 25.171 23.8099 25.441 23.8832 25.861C23.9206 26.0548 23.878 26.2553 23.7647 26.4184C23.6514 26.5815 23.4767 26.6939 23.2788 26.731C22.6911 26.8447 22.0939 26.905 21.4949 26.911V26.9135ZM18.5289 30.0011C18.4641 29.9985 18.3998 29.9884 18.3374 29.9711C15.9912 29.3111 14.4568 28.4261 12.8484 26.821C10.7823 24.736 9.64688 21.9609 9.64688 18.9907C9.64688 16.5607 11.6829 14.5806 14.1906 14.5806C16.6984 14.5806 18.7351 16.5607 18.7351 18.9907C18.7351 20.5958 20.1073 21.9009 21.8038 21.9009C23.5003 21.9009 24.8726 20.5958 24.8726 18.9907C24.8726 13.3355 20.0773 8.74539 14.176 8.74539C9.98579 8.74539 6.14985 11.1155 4.424 14.7906C3.84957 16.0056 3.55341 17.4307 3.55341 18.9907C3.55341 20.1608 3.65617 22.0059 4.54144 24.4059C4.68952 24.796 4.4974 25.231 4.1138 25.366C4.02264 25.4 3.9254 25.4156 3.82793 25.4118C3.73045 25.4081 3.63476 25.3851 3.54658 25.3442C3.45841 25.3034 3.37959 25.2455 3.31484 25.174C3.25009 25.1026 3.20077 25.019 3.16982 24.9285C2.45795 23.0264 2.09326 21.0165 2.09244 18.9907C2.09244 17.1907 2.43199 15.5531 3.09578 14.1306C5.05843 9.94293 9.41072 7.23033 14.176 7.23033C20.8892 7.23033 26.3482 12.4955 26.3482 18.9757C26.3482 21.4058 24.3122 23.3859 21.8038 23.3859C19.2954 23.3859 17.2594 21.4058 17.2594 18.9757C17.26 17.3707 15.8878 16.0631 14.1913 16.0631C12.4948 16.0631 11.1225 17.3682 11.1225 18.9732C11.1225 21.5358 12.0965 23.9384 13.8817 25.7385C15.2859 27.1485 16.6262 27.9261 18.7063 28.5136C19.1046 28.6186 19.3261 29.0386 19.2227 29.4286C19.1905 29.5869 19.1042 29.7298 18.9782 29.8339C18.8521 29.9379 18.6937 29.9969 18.5289 30.0011Z" fill="white"/>
</svg>
