<svg width="56" height="23" viewBox="0 0 56 23" fill="none" xmlns="http://www.w3.org/2000/svg">
<path d="M0 6.528C0.362667 6.50667 0.821333 6.47467 1.376 6.432C1.952 6.38933 2.57067 6.35733 3.232 6.336C3.91467 6.31467 4.62933 6.29333 5.376 6.272C6.144 6.25067 6.90133 6.24 7.648 6.24C10.0587 6.24 11.808 6.58133 12.896 7.264C13.984 7.92533 14.528 8.928 14.528 10.272C14.528 11.0187 14.304 11.744 13.856 12.448C13.408 13.1307 12.64 13.6427 11.552 13.984V14.112C12.8747 14.2613 13.8027 14.688 14.336 15.392C14.8693 16.096 15.136 16.96 15.136 17.984C15.136 19.5627 14.4533 20.7573 13.088 21.568C11.744 22.3573 9.52533 22.752 6.432 22.752C5.984 22.752 5.46133 22.7413 4.864 22.72C4.288 22.72 3.70133 22.6987 3.104 22.656C2.50667 22.6347 1.93067 22.6027 1.376 22.56C0.821333 22.5387 0.362667 22.5067 0 22.464V6.528ZM4.064 19.296C4.21333 19.3173 4.40533 19.3387 4.64 19.36C4.87467 19.3813 5.12 19.4027 5.376 19.424C5.632 19.424 5.888 19.424 6.144 19.424C6.4 19.424 6.624 19.424 6.816 19.424C8.26667 19.424 9.32267 19.264 9.984 18.944C10.6453 18.624 10.976 18.1333 10.976 17.472C10.976 16.9173 10.688 16.4693 10.112 16.128C9.55733 15.7653 8.576 15.584 7.168 15.584H4.064V19.296ZM7.232 13.024C8.29867 13.024 9.10933 12.864 9.664 12.544C10.24 12.2027 10.528 11.776 10.528 11.264C10.528 10.7093 10.2613 10.2933 9.728 10.016C9.19467 9.71733 8.27733 9.568 6.976 9.568C6.48533 9.568 5.93067 9.57867 5.312 9.6C4.71467 9.62133 4.29867 9.64267 4.064 9.664V13.024H7.232Z" fill="#111111"/>
<path d="M31.2275 20.96C30.3528 21.6213 29.3288 22.1227 28.1555 22.464C26.9822 22.784 25.7555 22.944 24.4755 22.944C23.0888 22.944 21.8515 22.7413 20.7635 22.336C19.6968 21.9307 18.7902 21.3653 18.0435 20.64C17.3182 19.8933 16.7635 18.9973 16.3795 17.952C15.9955 16.9067 15.8035 15.7547 15.8035 14.496C15.8035 13.152 16.0275 11.9573 16.4755 10.912C16.9235 9.86667 17.5422 8.98133 18.3315 8.256C19.1422 7.53067 20.0915 6.98667 21.1795 6.624C22.2675 6.24 23.4515 6.048 24.7315 6.048C25.9262 6.048 27.0462 6.18667 28.0915 6.464C29.1368 6.74133 29.9368 7.008 30.4915 7.264V12.896H26.9715V9.952C26.3102 9.80267 25.6488 9.728 24.9875 9.728C24.3902 9.728 23.7928 9.824 23.1955 10.016C22.6195 10.1867 22.0968 10.4747 21.6275 10.88C21.1795 11.264 20.8062 11.7547 20.5075 12.352C20.2302 12.9493 20.0915 13.664 20.0915 14.496C20.0915 15.1787 20.2088 15.808 20.4435 16.384C20.6782 16.96 21.0088 17.4613 21.4355 17.888C21.8622 18.3147 22.3848 18.656 23.0035 18.912C23.6435 19.1467 24.3475 19.264 25.1155 19.264C26.3315 19.264 27.3235 19.0933 28.0915 18.752C28.8808 18.4107 29.4675 18.112 29.8515 17.856L31.2275 20.96Z" fill="#111111"/>
<path d="M47.031 20.8C46.7537 21.056 46.391 21.312 45.943 21.568C45.5163 21.8027 45.0043 22.0267 44.407 22.24C43.831 22.4533 43.191 22.624 42.487 22.752C41.783 22.88 41.0363 22.944 40.247 22.944C38.8817 22.944 37.655 22.752 36.567 22.368C35.5003 21.984 34.5937 21.4293 33.847 20.704C33.1003 19.9573 32.5243 19.072 32.119 18.048C31.735 17.0027 31.543 15.8187 31.543 14.496C31.543 13.088 31.767 11.8613 32.215 10.816C32.663 9.74933 33.271 8.864 34.039 8.16C34.8283 7.456 35.7457 6.93333 36.791 6.592C37.8363 6.22933 38.967 6.048 40.183 6.048C40.9937 6.048 41.8257 6.15467 42.679 6.368C43.5537 6.58133 44.3537 6.95467 45.079 7.488C45.8043 8 46.391 8.69333 46.839 9.568C47.3083 10.4427 47.543 11.552 47.543 12.896C47.543 13.8133 47.4363 14.8053 47.223 15.872H35.703C35.7243 16.5547 35.863 17.1307 36.119 17.6C36.3963 18.0693 36.7483 18.4533 37.175 18.752C37.623 19.0507 38.1243 19.2747 38.679 19.424C39.255 19.552 39.863 19.616 40.503 19.616C41.783 19.616 42.8283 19.4667 43.639 19.168C44.471 18.8693 45.143 18.5067 45.655 18.08L47.031 20.8ZM40.119 9.376C39.5643 9.376 39.0417 9.45067 38.551 9.6C38.0603 9.74933 37.6123 9.97333 37.207 10.272C36.823 10.5493 36.503 10.9013 36.247 11.328C35.991 11.7547 35.8417 12.2347 35.799 12.768H43.671C43.671 11.7227 43.3723 10.9013 42.775 10.304C42.199 9.68533 41.3137 9.376 40.119 9.376ZM33.399 2.4C33.399 1.67467 33.6123 1.09867 34.039 0.671999C34.487 0.224 35.0843 0 35.831 0C36.5563 0 37.1323 0.224 37.559 0.671999C37.9857 1.09867 38.199 1.67467 38.199 2.4C38.199 3.08267 37.9857 3.648 37.559 4.096C37.1323 4.52267 36.5563 4.736 35.831 4.736C35.0843 4.736 34.487 4.52267 34.039 4.096C33.6123 3.648 33.399 3.08267 33.399 2.4ZM41.655 2.4C41.655 1.67467 41.8683 1.09867 42.295 0.671999C42.7217 0.224 43.2977 0 44.023 0C44.7483 0 45.335 0.224 45.783 0.671999C46.231 1.09867 46.455 1.67467 46.455 2.4C46.455 3.08267 46.231 3.648 45.783 4.096C45.335 4.52267 44.7483 4.736 44.023 4.736C43.2977 4.736 42.7217 4.52267 42.295 4.096C41.8683 3.648 41.655 3.08267 41.655 2.4Z" fill="#111111"/>
<path d="M50.1385 20.384C50.1385 19.6373 50.3732 19.0507 50.8425 18.624C51.3118 18.176 51.9305 17.952 52.6985 17.952C53.5092 17.952 54.1492 18.176 54.6185 18.624C55.0878 19.0507 55.3225 19.6373 55.3225 20.384C55.3225 21.1307 55.0878 21.728 54.6185 22.176C54.1492 22.624 53.5092 22.848 52.6985 22.848C51.9305 22.848 51.3118 22.624 50.8425 22.176C50.3732 21.728 50.1385 21.1307 50.1385 20.384Z" fill="#111111"/>
</svg>
