<svg width="29" height="28" viewBox="0 0 29 28" fill="none" xmlns="http://www.w3.org/2000/svg">
<path d="M25.7984 1H17.9542C17.7103 0.999827 17.4762 1.09421 17.3031 1.26251L1.6211 16.6193C1.27773 16.9572 1.08496 17.4145 1.08496 17.8912C1.08496 18.3679 1.27773 18.8252 1.6211 19.1631L9.08874 26.4759C9.4338 26.8122 9.90079 27.0009 10.3876 27.0009C10.8744 27.0009 11.3414 26.8122 11.6865 26.4759L27.3621 11.1254C27.534 10.9559 27.6303 10.7267 27.6302 10.4878V2.80007C27.6313 2.56388 27.5848 2.3298 27.4933 2.11129C27.4017 1.89279 27.2669 1.69417 27.0967 1.52687C26.9264 1.35957 26.7241 1.22689 26.5012 1.13647C26.2784 1.04605 26.0396 0.999669 25.7984 1Z" stroke="white" stroke-width="2" stroke-linecap="round" stroke-linejoin="round"/>
</svg>
