<svg width="30" height="25" viewBox="0 0 30 25" fill="none" xmlns="http://www.w3.org/2000/svg">
<path fill-rule="evenodd" clip-rule="evenodd" d="M22.9481 0.128425C22.3566 -0.0203383 21.7393 -0.0400957 21.1394 0.0703834L4.33895 2.8784L4.32035 2.88169C3.36657 3.05968 2.50191 3.55876 1.87771 4.29801C1.25327 5.03755 0.909409 5.97063 0.909913 6.9367V6.93703V8.91048C0.909262 8.94003 0.908936 8.96966 0.908936 8.99937V20.9998C0.908936 23.2286 2.74815 24.9999 4.97258 24.9999H25.3969C27.6213 24.9999 29.4605 23.2286 29.4605 20.9998V8.99937C29.4605 7.01103 27.9968 5.38686 26.1017 5.05949V4.1241V4.12378C26.1015 3.51339 25.9637 2.91129 25.699 2.36065C25.4343 1.8101 25.0496 1.32533 24.5739 0.939972C24.0982 0.554671 23.5429 0.278016 22.9481 0.128425ZM24.1017 4.99927V4.12443V4.1241C24.1015 3.81483 24.0318 3.50867 23.8965 3.22725C23.7611 2.94565 23.563 2.69498 23.315 2.4941C23.0669 2.29316 22.7752 2.14723 22.4603 2.06803C22.1454 1.98882 21.8161 1.97862 21.4964 2.03828L21.4778 2.04156L4.67881 4.84934C4.41683 4.89926 4.1694 4.99457 3.94706 5.1282C4.27528 5.044 4.61907 4.99927 4.97258 4.99927H24.1017ZM2.90894 9.99931H2.90991V8.93763C2.94343 7.87991 3.83506 6.99927 4.97258 6.99927H25.3969C26.5565 6.99927 27.4605 7.9144 27.4605 8.99937V20.9998C27.4605 22.0848 26.5565 22.9999 25.3969 22.9999H4.97258C3.813 22.9999 2.90894 22.0848 2.90894 20.9998V9.99931Z" fill="white"/>
</svg>
