<svg width="12" height="12" viewBox="0 0 12 12" fill="none" xmlns="http://www.w3.org/2000/svg">
<path d="M11.4 5.40087C11.2409 5.40087 11.0883 5.46409 10.9757 5.57661C10.8632 5.68913 10.8 5.84174 10.8 6.00087C10.8071 7.12469 10.4222 8.21582 9.71139 9.08634C9.00061 9.95686 8.00852 10.5523 6.90598 10.77C5.80344 10.9878 4.65947 10.8143 3.6711 10.2793C2.68274 9.74441 1.91184 8.88157 1.4912 7.83942C1.07055 6.79727 1.02648 5.64106 1.36657 4.56992C1.70667 3.49878 2.40964 2.57976 3.35442 1.97114C4.2992 1.36253 5.42664 1.10242 6.54256 1.23562C7.65847 1.36882 8.69302 1.88699 9.468 2.70088H8.028C7.86887 2.70088 7.71626 2.76409 7.60374 2.87661C7.49122 2.98913 7.428 3.14174 7.428 3.30087C7.428 3.46 7.49122 3.61262 7.60374 3.72514C7.71626 3.83766 7.86887 3.90087 8.028 3.90087H10.746C10.9051 3.90087 11.0577 3.83766 11.1703 3.72514C11.2828 3.61262 11.346 3.46 11.346 3.30087V0.600878C11.346 0.441748 11.2828 0.289136 11.1703 0.176614C11.0577 0.0640927 10.9051 0.000878726 10.746 0.000878726C10.5869 0.000878726 10.4343 0.0640927 10.3217 0.176614C10.2092 0.289136 10.146 0.441748 10.146 0.600878V1.66288C9.1468 0.707713 7.84845 0.12685 6.47041 0.0184761C5.09237 -0.0898977 3.71918 0.280865 2.58295 1.06809C1.44673 1.85532 0.617167 3.01072 0.234499 4.33899C-0.14817 5.66725 -0.0604722 7.08691 0.482767 8.35798C1.02601 9.62906 1.99146 10.6736 3.21594 11.315C4.44042 11.9564 5.8488 12.1553 7.20302 11.8781C8.55725 11.601 9.77424 10.8647 10.6483 9.79387C11.5223 8.72299 11.9998 7.38316 12 6.00087C12 5.84174 11.9368 5.68913 11.8243 5.57661C11.7117 5.46409 11.5591 5.40087 11.4 5.40087Z" fill="#111111"/>
</svg>
