<svg width="23" height="24" viewBox="0 0 23 24" fill="none" xmlns="http://www.w3.org/2000/svg">
<path d="M21.8831 14.1096C22.5817 8.22873 21.5474 4.51597 19.6818 2.83669L19.6827 2.83571C16.6715 -0.0320393 6.50219 -0.456494 2.89969 2.96451C1.28189 4.63794 0.712043 7.09392 0.649595 10.1344C0.587146 13.1758 0.512988 18.8733 5.82209 20.4189H5.82697L5.82209 22.7792C5.82209 22.7792 5.78598 23.7355 6.39681 23.9277C7.09545 24.1541 7.4116 23.7101 9.58461 21.1146C13.2183 21.4298 16.009 20.7077 16.3261 20.6023C17.0599 20.3564 21.2117 19.8071 21.8831 14.1096ZM9.94271 19.4538C9.94271 19.4538 7.64285 22.3216 6.92762 23.0661C6.69344 23.3081 6.43681 23.2856 6.44072 22.8056C6.44072 22.4904 6.45828 18.8869 6.45828 18.8869C1.95711 17.597 2.22252 12.7455 2.2713 10.2076C2.32009 7.66864 2.78455 5.5893 4.15452 4.18909C7.315 1.22571 16.2305 1.88825 18.5021 4.02321C21.2791 6.48505 20.2906 13.4402 20.2965 13.6774C19.7257 18.4332 16.3612 18.7347 15.7426 18.9406C15.4782 19.0284 13.0242 19.6597 9.94271 19.4538Z" fill="white"/>
<path d="M11.2185 4.74609C10.8429 4.74609 10.8429 5.33155 11.2185 5.33643C14.1331 5.35887 16.5335 7.3904 16.5598 11.1168C16.5598 11.51 17.1355 11.5052 17.1306 11.1119H17.1297C17.0984 7.09669 14.4775 4.76854 11.2185 4.74609Z" fill="white"/>
<path d="M15.0504 10.4984C15.0416 10.8868 15.6164 10.9053 15.6212 10.5121C15.6691 8.29808 14.304 6.47439 11.7387 6.28217C11.363 6.25485 11.324 6.84518 11.6987 6.8725C13.9234 7.04131 15.0953 8.55959 15.0504 10.4984Z" fill="white"/>
<path d="M14.4363 13.017C13.9543 12.738 13.4635 12.9117 13.2605 13.1858L12.8361 13.7352C12.6204 14.0143 12.2175 13.9772 12.2175 13.9772C9.27653 13.1995 8.49007 10.122 8.49007 10.122C8.49007 10.122 8.45397 9.70532 8.72328 9.48187L9.25409 9.04278C9.51949 8.83202 9.68732 8.32463 9.41704 7.82601C8.69498 6.52143 8.21003 6.0716 7.96316 5.72618C7.70361 5.40126 7.31331 5.32807 6.90739 5.54762H6.89861C6.05458 6.04135 5.13054 6.9654 5.4262 7.91676C5.93066 8.91984 6.85763 12.1174 9.81222 14.5334C11.2007 15.676 13.3981 16.8469 14.3309 17.1172L14.3397 17.1308C15.2589 17.4372 16.1527 16.4771 16.6298 15.6077V15.6008C16.8416 15.1803 16.7713 14.7822 16.462 14.5217C15.9136 13.9869 15.0862 13.3966 14.4363 13.017Z" fill="white"/>
<path d="M12.1427 8.4601C13.0804 8.51474 13.5351 9.00457 13.5839 10.0106C13.6014 10.4038 14.1723 10.3765 14.1547 9.98326C14.0922 8.66989 13.4073 7.93807 12.1739 7.86976C11.7982 7.84732 11.7631 8.43766 12.1427 8.4601Z" fill="white"/>
</svg>
