<svg width="24" height="23" viewBox="0 0 24 23" fill="none" xmlns="http://www.w3.org/2000/svg">
<path d="M23.4729 11.0724C23.4729 17.1476 18.5102 22.0725 12.3873 22.0725C10.4435 22.0725 8.61736 21.5757 7.0286 20.7038L0.891113 22.6541L2.89211 16.7522C1.88271 15.0947 1.30135 13.1507 1.30135 11.0724C1.30135 4.99711 6.26458 0.0722656 12.3875 0.0722656C18.5107 0.0722656 23.4729 4.99711 23.4729 11.0724ZM12.3873 1.82411C7.24764 1.82411 3.067 5.9729 3.067 11.0724C3.067 13.0962 3.72664 14.9702 4.84243 16.4948L3.67796 19.9292L7.25969 18.7908C8.73127 19.7571 10.4942 20.3206 12.3875 20.3206C17.5264 20.3206 21.7078 16.1723 21.7078 11.0726C21.7075 5.97315 17.5266 1.82411 12.3873 1.82411ZM17.9853 13.6058C17.9168 13.4936 17.7359 13.4259 17.4644 13.2912C17.1924 13.1564 15.8561 12.5038 15.6077 12.4145C15.3585 12.3244 15.1769 12.2792 14.996 12.549C14.8151 12.8189 14.2942 13.4259 14.1353 13.6058C13.9768 13.7862 13.8184 13.8088 13.5465 13.6738C13.275 13.5391 12.3996 13.254 11.3615 12.3354C10.5539 11.6211 10.0084 10.7387 9.84982 10.4687C9.6915 10.199 9.83326 10.0532 9.969 9.91894C10.0914 9.798 10.241 9.60405 10.3767 9.44673C10.513 9.28916 10.5581 9.177 10.6482 8.99685C10.7393 8.81695 10.6939 8.65963 10.6256 8.52439C10.5579 8.38965 10.0139 7.06284 9.7876 6.52314C9.56128 5.98343 9.33521 6.07326 9.17638 6.07326C9.01806 6.07326 8.83665 6.05068 8.65549 6.05068C8.47434 6.05068 8.17977 6.11817 7.93062 6.3879C7.68172 6.65788 6.97992 7.31024 6.97992 8.6368C6.97992 9.9636 7.9532 11.2455 8.08944 11.4254C8.22518 11.6051 9.96875 14.4162 12.7313 15.4959C15.494 16.5748 15.494 16.2148 15.9923 16.1696C16.4901 16.1247 17.5996 15.5175 17.827 14.8882C18.0528 14.2579 18.0528 13.7182 17.9853 13.6058Z" fill="white"/>
</svg>
